<?xml version="1.0" encoding="UTF-8"?>
<svg width="24px" height="34px" viewBox="0 0 24 34" version="1.1" xmlns="http://www.w3.org/2000/svg" xmlns:xlink="http://www.w3.org/1999/xlink">
    <!-- Generator: Sketch 42 (36781) - http://www.bohemiancoding.com/sketch -->
    <title>Bell icon nav</title>
    <desc>Created with Sketch.</desc>
    <defs></defs>
    <g id="Symbols" stroke="none" stroke-width="1" fill="none" fill-rule="evenodd">
        <g id="Bell-icon-nav" fill="#FFFFFF">
            <g id="Layer_1">
                <path d="M15.6078175,29.0416667 C14.9887588,29.0416667 14.4883623,29.5153523 14.4883623,30.101366 C14.4883623,31.0826476 13.5345865,31.8806013 12.3636364,31.8806013 C11.1926862,31.8806013 10.2389104,31.0826476 10.2389104,30.101366 C10.2389104,29.5153523 9.73851392,29.0416667 9.1194552,29.0416667 C8.50039647,29.0416667 8,29.5153523 8,30.101366 C8,32.2504363 9.95792714,34 12.3636364,34 C14.7693456,34 16.7272727,32.251496 16.7272727,30.101366 C16.7272727,29.516412 16.2268763,29.0416667 15.6078175,29.0416667 L15.6078175,29.0416667 Z" id="Shape"></path>
                <path d="M22.9101305,18.5899669 L21.2158718,18.5899669 L21.2147809,14.4966938 C21.158051,10.2380468 17.6037079,6.72087996 13.0915032,6.22475839 L13.0915032,5.38383774 C14.1846437,4.97310529 14.9614062,3.96897253 14.9614062,2.79298067 C14.9614062,1.25273398 13.6326186,0 12.0005446,0 C10.3684705,0 9.03968293,1.25273398 9.03968293,2.79298067 C9.03968293,3.96897253 9.81644545,4.97310529 10.909586,5.38383774 L10.909586,6.22475839 C6.41592751,6.71979908 2.86267536,10.2207528 2.78630826,14.4523779 C2.7852173,14.4815615 2.7852173,17.0713377 2.7852173,18.5899669 L1.0909586,18.5899669 C0.487658493,18.5899669 0,19.073118 0,19.6708418 C0,24.7260936 1.73353321,27.625 4.75439757,27.625 L19.2445096,27.625 C23.9999982,27.625 23.9999982,21.6380341 23.9999982,19.6708418 C24.0010891,19.0741989 23.5134306,18.5899669 22.9101305,18.5899669 L22.9101305,18.5899669 Z M12.0005446,2.16174975 C12.4227455,2.16174975 12.779489,2.45142421 12.779489,2.79298067 C12.779489,3.13453713 12.4227455,3.4242116 12.0005446,3.4242116 C11.5783436,3.4242116 11.2216001,3.13453713 11.2216001,2.79298067 C11.2216001,2.45142421 11.5783436,2.16174975 12.0005446,2.16174975 L12.0005446,2.16174975 Z M4.96822545,14.4988555 C5.03041009,11.0930188 8.18437139,8.32057477 12.0005446,8.32057477 C15.8319912,8.32057477 18.9870434,11.1038276 19.0328637,14.511826 L19.0339546,18.5899669 L4.96713449,18.5899669 C4.96713449,17.1048449 4.96713449,14.6015387 4.96822545,14.4988555 L4.96822545,14.4988555 Z M19.2456006,25.4643311 L4.75439757,25.4643311 C2.83431043,25.4643311 2.34337907,22.5005722 2.2211917,20.7527976 L21.7984437,20.7527976 C21.6653468,24.0408189 20.8809475,25.4643311 19.2456006,25.4643311 L19.2456006,25.4643311 Z" id="Shape"></path>
            </g>
        </g>
    </g>
</svg>