<svg id="Groupe_859" data-name="Groupe 859" xmlns="http://www.w3.org/2000/svg" xmlns:xlink="http://www.w3.org/1999/xlink" viewBox="0 0 183.433 179.89">
  <defs>
    <style>
      .cls-1 {
        fill: #1d7ca7;
      }

      .cls-2 {
        clip-path: url(#clip-path);
      }
    </style>
    <clipPath id="clip-path">
      <path id="Tracé_753" data-name="Tracé 753" class="cls-1" d="M0-411.427H183.433v179.89H0Z" transform="translate(0 411.427)"/>
    </clipPath>
  </defs>
  <g id="Groupe_724" data-name="Groupe 724" class="cls-2" transform="translate(0 0)">
    <g id="Groupe_715" data-name="Groupe 715" transform="translate(75.041 0)">
      <path id="Tracé_744" data-name="Tracé 744" class="cls-1" d="M-21.464-10.731a8.338,8.338,0,0,1,8.338,8.338,8.338,8.338,0,0,1-8.338,8.338A8.338,8.338,0,0,1-29.8-2.393a8.338,8.338,0,0,1,8.338-8.338m0,25.014A16.676,16.676,0,0,0-4.788-2.393,16.676,16.676,0,0,0-21.464-19.069,16.676,16.676,0,0,0-38.14-2.393,16.676,16.676,0,0,0-21.464,14.282" transform="translate(38.14 19.069)"/>
    </g>
    <g id="Groupe_716" data-name="Groupe 716" transform="translate(62.535 36.052)">
      <path id="Tracé_745" data-name="Tracé 745" class="cls-1" d="M-11.268-26.841c.417-6.253,6.879-12.507,14.591-12.507H15c7.713,0,14.175,6.253,14.591,12.507Zm26.485-20.85L15-47.685H3.323A22.721,22.721,0,0,0-20.018-25.6c0,.073,0,.147,0,.221v3.335c0,2.293,2.293,3.543,4.586,3.543H33.756c2.293,0,4.586-1.251,4.586-3.543v-3.335A22.722,22.722,0,0,0,15.217-47.691" transform="translate(20.023 47.695)"/>
    </g>
    <g id="Groupe_717" data-name="Groupe 717" transform="translate(19.803 44.956)">
      <path id="Tracé_746" data-name="Tracé 746" class="cls-1" d="M-5.366-78.429A4.169,4.169,0,0,0-1.2-82.6a63.577,63.577,0,0,1,23.763-49.61,4.169,4.169,0,0,0,.077-5.9,4.168,4.168,0,0,0-5.288-.567A71.7,71.7,0,0,0-9.535-82.6a4.169,4.169,0,0,0,4.169,4.169" transform="translate(9.535 139.364)"/>
    </g>
    <g id="Groupe_718" data-name="Groupe 718" transform="translate(66.225 161.687)">
      <path id="Tracé_747" data-name="Tracé 747" class="cls-1" d="M-58.961-.31l-.1.036a63.37,63.37,0,0,1-40.23,0,4.169,4.169,0,0,0-5.211,2.71,3.961,3.961,0,0,0,2.258,5.126c.08.031.161.06.243.085a71.289,71.289,0,0,0,45.65,0,4.378,4.378,0,0,0,2.71-5.42A4.169,4.169,0,0,0-58.961-.31" transform="translate(104.77 0.55)"/>
    </g>
    <g id="Groupe_719" data-name="Groupe 719" transform="translate(126.608 42.187)">
      <path id="Tracé_748" data-name="Tracé 748" class="cls-1" d="M-2.311-9.823a63.37,63.37,0,0,1,26.89,51.9,4.169,4.169,0,1,0,8.338,0A72.329,72.329,0,0,0,2.483-16.7,4.193,4.193,0,0,0-3.353-15.66,4.193,4.193,0,0,0-2.311-9.823" transform="translate(4.106 17.456)"/>
    </g>
    <g id="Groupe_720" data-name="Groupe 720" transform="translate(12.507 114.646)">
      <path id="Tracé_749" data-name="Tracé 749" class="cls-1" d="M-21.463-10.732a8.337,8.337,0,0,1,8.338,8.338,8.338,8.338,0,0,1-8.338,8.339A8.338,8.338,0,0,1-29.8-2.394a8.337,8.337,0,0,1,8.338-8.338m0,25.014A16.676,16.676,0,0,0-4.787-2.394,16.676,16.676,0,0,0-21.463-19.07,16.676,16.676,0,0,0-38.139-2.394,16.676,16.676,0,0,0-21.463,14.282" transform="translate(38.139 19.07)"/>
    </g>
    <g id="Groupe_721" data-name="Groupe 721" transform="translate(0 150.698)">
      <path id="Tracé_750" data-name="Tracé 750" class="cls-1" d="M-11.268-26.84c.417-6.253,6.879-12.507,14.591-12.507H15c7.713,0,14.174,6.253,14.591,12.507ZM15.217-47.69l-.22.005H3.323A22.721,22.721,0,0,0-20.018-25.6c0,.073,0,.147,0,.221v3.335c0,2.293,2.293,3.544,4.586,3.544H33.756c2.293,0,4.586-1.251,4.586-3.544V-25.38A22.721,22.721,0,0,0,15.217-47.69" transform="translate(20.023 47.694)"/>
    </g>
    <g id="Groupe_722" data-name="Groupe 722" transform="translate(137.575 114.645)">
      <path id="Tracé_751" data-name="Tracé 751" class="cls-1" d="M-32.2-21.464a8.338,8.338,0,0,1-8.338,8.338,8.338,8.338,0,0,1-8.338-8.338A8.337,8.337,0,0,1-40.533-29.8,8.337,8.337,0,0,1-32.2-21.464m-25.014,0A16.676,16.676,0,0,0-40.533-4.788,16.676,16.676,0,0,0-23.857-21.464,16.676,16.676,0,0,0-40.533-38.14,16.676,16.676,0,0,0-57.209-21.464" transform="translate(57.209 38.14)"/>
    </g>
    <g id="Groupe_723" data-name="Groupe 723" transform="translate(125.069 150.698)">
      <path id="Tracé_752" data-name="Tracé 752" class="cls-1" d="M-11.268-26.84c.417-6.253,6.878-12.507,14.591-12.507H15c7.713,0,14.174,6.253,14.591,12.507ZM15.216-47.69,15-47.685H3.323A22.721,22.721,0,0,0-20.018-25.6c0,.073,0,.147,0,.221v3.335c0,2.293,2.293,3.544,4.586,3.544H33.756c2.293,0,4.586-1.251,4.586-3.544V-25.38A22.721,22.721,0,0,0,15.216-47.69" transform="translate(20.023 47.694)"/>
    </g>
  </g>
</svg>
