<?xml version="1.0" encoding="utf-8"?>
<!-- Generator: Adobe Illustrator 22.1.0, SVG Export Plug-In . SVG Version: 6.00 Build 0)  -->
<svg version="1.1" id="Groupe_859" xmlns="http://www.w3.org/2000/svg" xmlns:xlink="http://www.w3.org/1999/xlink" x="0px" y="0px"
	 viewBox="0 0 183.4 179.9" style="enable-background:new 0 0 183.4 179.9;" xml:space="preserve">
<style type="text/css">
	.st0{clip-path:url(#SVGID_2_);}
	.st1{fill:rgba(0,0,0,0.65);}
	.st2{fill:rgba(0,0,0,0.65);}
</style>
<g>
	<defs>
		<rect id="SVGID_1_" x="3.6" y="2.8" width="176.2" height="172.8"/>
	</defs>
	<clipPath id="SVGID_2_">
		<use xlink:href="#SVGID_1_"  style="overflow:visible;"/>
	</clipPath>
	<g class="st0">
		<g id="Groupe_724">
			<g id="Groupe_715">
				<path id="Tracé_744" class="st1" d="M91.7,10.8c4.4,0,8,3.6,8,8l0,0l0,0c0,4.4-3.6,8-8,8l0,0c-4.4-0.4-7.6-4.4-7.2-8.8
					C84.9,14.2,87.9,11.2,91.7,10.8L91.7,10.8 M91.7,34.9c8.8-0.2,15.8-7.6,15.6-16.4C107,9.9,100.2,3.1,91.7,2.8l0,0
					c-8.8,0.2-15.8,7.6-15.6,16.4C76.3,27.8,83.2,34.6,91.7,34.9"/>
			</g>
			<g id="Groupe_716">
				<path id="Tracé_745" class="st1" d="M72.1,57.4c0.4-6,6.6-12,14-12h11.2c7.4,0,13.6,6,14,12H72.1z M97.5,37.4H86.1
					C74,37.1,64,46.5,63.7,58.6l0,0V62c0,2.2,2.2,3.4,4.4,3.4h47.2c2.2,0,4.4-1.1,4.4-3.4v-3.3C119.5,46.8,109.5,37.2,97.5,37.4
					L97.5,37.4"/>
			</g>
			<g id="Groupe_717">
				<path id="Tracé_746" class="st1" d="M26.6,104.4c2.2,0,4-1.8,4-4c0,0,0,0,0,0c0-18.5,8.4-36.1,22.9-47.6c1.6-1.6,1.6-4.1,0-5.7
					c0,0,0,0,0,0l0,0c-1.3-1.4-3.5-1.6-5.1-0.6c-16.3,13.1-25.9,32.9-25.8,53.9C22.6,102.6,24.4,104.4,26.6,104.4
					C26.6,104.4,26.6,104.4,26.6,104.4"/>
			</g>
			<g id="Groupe_718">
				<path id="Tracé_747" class="st1" d="M111.2,158.3L111.2,158.3c-12.6,4.2-26.2,4.2-38.7,0c-2.1-0.6-4.3,0.5-5,2.6
					c-0.8,1.9,0.2,4.2,2.1,4.9c0,0,0,0,0,0l0.2,0.1c14.2,4.8,29.6,4.8,43.8,0c2.1-0.8,3.3-3.1,2.6-5.2
					C115.5,158.6,113.2,157.5,111.2,158.3"/>
			</g>
			<g id="Groupe_719">
				<path id="Tracé_748" class="st1" d="M126.9,50.6c16.2,11.4,25.9,30,25.8,49.8c0,2.2,1.8,4,4,4c2.2,0,4-1.8,4-4l0,0
					C160.7,78,149.8,57,131.6,44c-1.8-1.3-4.3-1-5.6,0.8c-1.3,1.8-1,4.3,0.8,5.6C126.8,50.5,126.9,50.5,126.9,50.6"/>
			</g>
			<g id="Groupe_720">
				<path id="Tracé_749" class="st1" d="M31.6,120.9c4.4,0,8,3.6,8,8l0,0c0,4.4-3.6,8-8,8l0,0c-4.4,0-8-3.6-8-8
					S27.2,120.9,31.6,120.9L31.6,120.9 M31.6,144.9c8.8,0,16-7.2,16-16.1s-7.2-16-16.1-16c-8.8,0-16,7.2-16,16.1
					C15.6,137.8,22.8,144.9,31.6,144.9C31.6,144.9,31.6,144.9,31.6,144.9"/>
			</g>
			<g id="Groupe_721">
				<path id="Tracé_750" class="st1" d="M12,167.5c0.4-6,6.6-12,14-12h11.2c7.4,0,13.6,6,14,12H12z M37.4,147.5H26
					c-12-0.3-22.1,9.2-22.4,21.2l0,0v3.4c0,2.2,2.2,3.4,4.4,3.4h47.2c2.2,0,4.4-1.1,4.4-3.4v-3.2C59.4,156.9,49.5,147.3,37.4,147.5
					C37.4,147.5,37.4,147.5,37.4,147.5L37.4,147.5"/>
			</g>
			<g id="Groupe_722">
				<path id="Tracé_751" class="st1" d="M159.7,128.9c0,4.4-3.6,8-8,8l0,0c-4.4,0-8-3.6-8-8l0,0c0-4.4,3.6-8,8-8l0,0
					C156.1,120.9,159.7,124.5,159.7,128.9 M135.7,128.9c0,8.8,7.2,16,16,16l0,0c8.9,0,16-7.2,16-16l0,0l0,0
					c-0.2-8.8-7.6-15.8-16.4-15.6C142.8,113.5,135.9,120.4,135.7,128.9"/>
			</g>
			<g id="Groupe_723">
				<path id="Tracé_752" class="st1" d="M132.1,167.5c0.4-6,6.6-12,14-12h11.2c7.4,0,13.6,6,14,12H132.1z M157.6,147.5h-11.4
					c-12-0.3-22.1,9.2-22.4,21.2l0,0v3.4c0,2.2,2.2,3.4,4.4,3.4h47.2c2.2,0,4.4-1.1,4.4-3.4v-3.2
					C179.5,156.9,169.6,147.3,157.6,147.5L157.6,147.5"/>
			</g>
		</g>
	</g>
</g>
<g>
	<path class="st2" d="M105.4,103.5h-0.8v-3.8c0-7-5.6-12.9-12.6-13c-0.2,0-0.6,0-0.8,0c-7,0.1-12.6,6-12.6,13v3.8h-0.8
		c-1.3,0-2.3,1.3-2.3,2.9v19.1c0,1.6,1,2.9,2.3,2.9h27.5c1.3,0,2.3-1.3,2.3-2.9v-19.1C107.7,104.8,106.7,103.5,105.4,103.5z
		 M94.3,115.9v5.8c0,0.7-0.6,1.2-1.2,1.2h-2.7c-0.7,0-1.2-0.6-1.2-1.2v-5.8c-0.6-0.6-1-1.5-1-2.5c0-1.8,1.4-3.4,3.2-3.5
		c0.2,0,0.6,0,0.8,0c1.8,0.1,3.2,1.6,3.2,3.5C95.3,114.4,94.9,115.3,94.3,115.9z M99.3,103.5h-7.2h-0.8h-7.2v-3.8
		c0-4.2,3.4-7.7,7.6-7.7s7.6,3.5,7.6,7.7L99.3,103.5L99.3,103.5z"/>
</g>
</svg>
